<?xml version="1.0" encoding="iso-8859-1"?>
<!-- Uploaded to: SVG Repo, www.svgrepo.com, Generator: SVG Repo Mixer Tools -->
<svg height="800px" width="800px" version="1.1" id="Layer_1" xmlns="http://www.w3.org/2000/svg" xmlns:xlink="http://www.w3.org/1999/xlink" 
	 viewBox="0 0 512 512" xml:space="preserve">
<path style="fill:#FFD155;" d="M242.704,507.076l-100.19-85.995c-14.319-12.292-5.628-35.905,13.297-35.905h200.378
	c18.884,0,27.647,23.587,13.297,35.905l-100.188,85.995C261.649,513.641,250.353,513.641,242.704,507.076z"/>
<path style="fill:#FFC72D;" d="M356.189,385.176h-100.19V512c4.867,0,9.57-1.724,13.298-4.924l100.188-85.995
	C383.805,408.789,375.113,385.176,356.189,385.176z"/>
<path style="fill:#FFDA79;" d="M417.132,426.005H94.868c-43.426,0-78.757-35.331-78.757-78.757V78.757
	C16.109,35.33,51.44,0,94.868,0h322.265c43.426,0,78.757,35.33,78.757,78.757v268.492
	C495.889,390.676,460.558,426.005,417.132,426.005z"/>
<g>
	<path style="fill:#36495E;" d="M343.507,146.274H168.491c-11.274,0-20.415-9.14-20.415-20.415s9.14-20.415,20.415-20.415h175.016
		c11.274,0,20.415,9.14,20.415,20.415S354.782,146.274,343.507,146.274z"/>
	<path style="fill:#36495E;" d="M391.112,248.368H120.887c-11.274,0-20.415-9.14-20.415-20.415s9.14-20.415,20.415-20.415h270.226
		c11.274,0,20.415,9.14,20.415,20.415S402.387,248.368,391.112,248.368z"/>
	<path style="fill:#36495E;" d="M391.112,320.562H120.887c-11.274,0-20.415-9.14-20.415-20.415c0-11.274,9.14-20.415,20.415-20.415
		h270.226c11.274,0,20.415,9.14,20.415,20.415C411.528,311.422,402.387,320.562,391.112,320.562z"/>
</g>
<path style="fill:#FFD155;" d="M417.132,0H255.999v426.005h161.133c43.426,0,78.757-35.331,78.757-78.757V78.757
	C495.889,35.33,460.558,0,417.132,0z"/>
<g>
	<path style="fill:#2C3E50;" d="M343.507,105.444h-87.508v40.829h87.508c11.274,0,20.415-9.14,20.415-20.415
		C363.922,114.583,354.782,105.444,343.507,105.444z"/>
	<path style="fill:#2C3E50;" d="M391.112,207.538H255.999v40.829h135.112c11.274,0,20.415-9.14,20.415-20.415
		S402.387,207.538,391.112,207.538z"/>
	<path style="fill:#2C3E50;" d="M391.112,279.733H255.999v40.829h135.112c11.274,0,20.415-9.14,20.415-20.415
		C411.526,288.873,402.387,279.733,391.112,279.733z"/>
</g>
</svg>